<svg width="40" height="28" viewBox="0 0 40 28" fill="none" xmlns="http://www.w3.org/2000/svg">
<rect width="40" height="28" rx="4" fill="#F4F4F4"/>
<path d="M10.0781 9C7.19103 9 4.48827 11.3342 4.05829 14.2212C3.6283 17.1083 5.62466 19.4425 8.48099 19.4425C11.3373 19.4425 14.0401 17.1083 14.5008 14.2212C14.9308 11.3342 12.9344 9 10.0781 9ZM11.8902 14.2212C11.6752 15.6648 10.3238 16.8319 8.88026 16.8319C7.43674 16.8319 6.45392 15.6648 6.66891 14.2212C6.8839 12.7777 8.23528 11.6106 9.6788 11.6106C11.1223 11.6106 12.1051 12.7777 11.8902 14.2212ZM25.2197 16.5862C24.114 18.2754 22.1791 19.4425 20.1213 19.4425C17.2342 19.4425 15.2379 17.1083 15.6986 14.2212C16.1593 11.3342 18.8313 9 21.6877 9C23.3462 9 24.7283 9.76783 25.4961 10.9964C25.7418 11.4263 25.7725 11.5492 25.7725 11.5492L23.899 12.6242C23.899 12.6242 23.4383 12.9006 23.0697 12.4706C22.6398 11.9485 22.0562 11.6106 21.2884 11.6106C19.8449 11.6106 18.4935 12.7777 18.2785 14.2212C18.0635 15.6648 19.0463 16.8319 20.4898 16.8319C21.3805 16.8319 22.2098 16.4019 22.7933 15.7262C23.1619 15.3883 23.5612 15.6033 23.5612 15.6033L25.2197 16.5862ZM33.2358 19.4118L33.0515 17.9375L30.9323 15.8183C30.8402 15.7262 30.9016 15.5419 31.0552 15.5419H32.7444L32.2223 11.4263L27.861 19.4118H25.1275L30.7788 9.03071H31.9151H33.5429H34.6793L36 19.4118H33.2358Z" fill="#0268C3"/>
</svg>